<svg xmlns="http://www.w3.org/2000/svg" viewBox="0 0 1600 900" width="1600" height="900" style="background:#0F172A;font-family:-apple-system,BlinkMacSystemFont,'Segoe UI','Noto Sans JP',Roboto,sans-serif;">
  <defs>
    <!-- Paper elevation shadow -->
    <filter id="paper-shadow" x="-5%" y="-5%" width="110%" height="115%" filterUnits="userSpaceOnUse">
      <feDropShadow dx="0" dy="12" stdDeviation="16" flood-color="#000000" flood-opacity="0.6"/>
      <feDropShadow dx="0" dy="4" stdDeviation="6" flood-color="#000000" flood-opacity="0.4"/>
    </filter>
    <filter id="card-shadow" x="-5%" y="-5%" width="110%" height="115%" filterUnits="userSpaceOnUse">
      <feDropShadow dx="0" dy="2" stdDeviation="4" flood-color="#000000" flood-opacity="0.3"/>
    </filter>
    <filter id="cyan-glow" x="-20%" y="-20%" width="140%" height="140%">
      <feDropShadow dx="0" dy="0" stdDeviation="3" flood-color="#38BDF8" flood-opacity="0.9"/>
    </filter>
    <filter id="playhead-shadow" x="-50%" y="-50%" width="200%" height="200%">
      <feDropShadow dx="0" dy="2" stdDeviation="3" flood-color="#000000" flood-opacity="0.5"/>
    </filter>
  </defs>

  <!-- ================= TOP COMMAND & TRANSPORT BAR (y=0..54) ================= -->
  <rect x="0" y="0" width="1600" height="54" fill="#171939" stroke="#334155" stroke-width="1"/>

  <!-- Left Branding & Counts -->
  <text x="16" y="32" font-size="15" font-weight="bold" fill="#F8FAFC" letter-spacing="0.5">Stardust</text>
  <rect x="82" y="18" width="116" height="20" rx="3" fill="#7C3AED"/>
  <text x="88" y="32" font-size="9" font-weight="bold" fill="#FFFFFF" letter-spacing="0.5">MULTI-STEM SCORE</text>

  <!-- Verified Badges -->
  <g transform="translate(206, 16)">
    <!-- Gate Pass -->
    <rect x="0" y="0" width="82" height="22" rx="4" fill="#10B981" fill-opacity="0.15" stroke="#10B981" stroke-opacity="0.4"/>
    <text x="7" y="15" font-family="monospace" font-size="9" font-weight="bold" fill="#34D399">✓ GATE PASS</text>

    <!-- Frozen Vocal Canon -->
    <rect x="88" y="0" width="138" height="22" rx="4" fill="#0891B2" fill-opacity="0.15" stroke="#0891B2" stroke-opacity="0.4"/>
    <text x="95" y="15" font-family="monospace" font-size="9" font-weight="bold" fill="#38BDF8">🔒 FROZEN CANON</text>

    <!-- 478 Notes -->
    <rect x="232" y="0" width="76" height="22" rx="4" fill="#7C3AED" fill-opacity="0.18" stroke="#7C3AED" stroke-opacity="0.4"/>
    <text x="239" y="15" font-family="monospace" font-size="9" font-weight="bold" fill="#C084FC">478 Notes</text>

    <!-- 4 Stems -->
    <rect x="314" y="0" width="60" height="22" rx="4" fill="#10122B" stroke="#334155"/>
    <text x="321" y="15" font-family="monospace" font-size="9" fill="#CBD5E1">4 Stems</text>

    <!-- 279 Lyrics -->
    <rect x="380" y="0" width="68" height="22" rx="4" fill="#10122B" stroke="#334155"/>
    <text x="387" y="15" font-family="monospace" font-size="9" fill="#CBD5E1">279 Lyrics</text>

    <!-- 199 Nulls -->
    <rect x="454" y="0" width="62" height="22" rx="4" fill="#10122B" stroke="#334155"/>
    <text x="461" y="15" font-family="monospace" font-size="9" fill="#94A3B8">199 Nulls</text>

    <!-- 29 Lines -->
    <rect x="522" y="0" width="58" height="22" rx="4" fill="#10122B" stroke="#334155"/>
    <text x="529" y="15" font-family="monospace" font-size="9" fill="#CBD5E1">29 Lines</text>

    <!-- Tempo & Key -->
    <rect x="586" y="0" width="126" height="22" rx="4" fill="#10122B" stroke="#334155"/>
    <text x="593" y="15" font-family="monospace" font-size="9" fill="#94A3B8">160 BPM • Gm • 4/4</text>
  </g>

  <!-- Center Transport Controls -->
  <g transform="translate(928, 12)">
    <!-- Transport Group -->
    <rect x="0" y="0" width="190" height="30" rx="4" fill="#10122B" stroke="#334155"/>
    <!-- Play button -->
    <rect x="3" y="3" width="56" height="24" rx="3" fill="#7C3AED"/>
    <text x="11" y="19" font-size="10" font-weight="bold" fill="#FFFFFF">▶ Play</text>
    <!-- Stop button -->
    <rect x="62" y="3" width="58" height="24" rx="3" fill="#262B5C" stroke="#334155"/>
    <text x="68" y="19" font-size="10" font-weight="bold" fill="#F8FAFC">■ Stop</text>
    <!-- Loop toggle -->
    <rect x="123" y="3" width="64" height="24" rx="3" fill="#262B5C" stroke="#334155"/>
    <text x="129" y="19" font-size="10" fill="#CBD5E1">🔁 Loop</text>

    <!-- Timecode readout (00:00.00 / 03:01.50) -->
    <rect x="198" y="0" width="136" height="30" rx="4" fill="#10122B" stroke="#334155"/>
    <text x="206" y="20" font-family="monospace" font-size="11" font-weight="bold" fill="#38BDF8">00:00.00 / 03:01.50</text>

    <!-- Measure Beat Digital Badge -->
    <rect x="340" y="0" width="112" height="30" rx="4" fill="#080C17" stroke="#38BDF8" stroke-width="1.2"/>
    <text x="350" y="20" font-family="monospace" font-size="10" font-weight="bold" fill="#38BDF8">BAR 1 · BEAT 1.0</text>

    <!-- Range controls -->
    <rect x="458" y="0" width="158" height="30" rx="4" fill="#10122B" stroke="#334155"/>
    <text x="464" y="19" font-family="monospace" font-size="10" font-weight="bold" fill="#94A3B8">A:</text>
    <rect x="478" y="4" width="34" height="22" rx="2" fill="#080C17" stroke="#334155"/>
    <text x="481" y="19" font-family="monospace" font-size="9" fill="#FFFFFF">13.16</text>
    <text x="518" y="19" font-family="monospace" font-size="10" font-weight="bold" fill="#94A3B8">B:</text>
    <rect x="532" y="4" width="34" height="22" rx="2" fill="#080C17" stroke="#334155"/>
    <text x="535" y="19" font-family="monospace" font-size="9" fill="#FFFFFF">23.24</text>
    <rect x="572" y="4" width="38" height="22" rx="3" fill="#262B5C" stroke="#334155"/>
    <text x="576" y="19" font-size="9" fill="#CBD5E1">Clear</text>
  </g>

  <!-- Right Artifact Downloads & Export -->
  <g transform="translate(1550, 13)">
    <rect x="-10" y="0" width="50" height="28" rx="4" fill="#0891B2"/>
    <text x="-4" y="18" font-size="10" font-weight="bold" fill="#FFFFFF">💾 Export</text>
  </g>

  <!-- ================= LEFT PAGE NAVIGATOR (x=0..170, y=54..828) ================= -->
  <rect x="0" y="54" width="170" height="774" fill="#171939" stroke="#334155" stroke-width="1"/>
  <rect x="0" y="54" width="170" height="32" fill="#10122B" stroke="#334155" stroke-width="1"/>
  <text x="12" y="74" font-size="11" font-weight="bold" fill="#94A3B8" letter-spacing="0.5">PAGES (12)</text>
  <rect x="116" y="59" width="22" height="22" rx="3" fill="#262B5C" stroke="#334155"/>
  <text x="123" y="74" font-size="11" fill="#CBD5E1">▲</text>
  <rect x="142" y="59" width="22" height="22" rx="3" fill="#262B5C" stroke="#334155"/>
  <text x="149" y="74" font-size="11" fill="#CBD5E1">▼</text>

  <!-- Page 1 Thumbnail (ACTIVE 4-STAFF GRAND SCORE) -->
  <g transform="translate(14, 96)">
    <rect x="0" y="0" width="142" height="170" rx="4" fill="#F7F3EA" stroke="#7C3AED" stroke-width="2.5" filter="url(#card-shadow)"/>
    <!-- 4 Staff groupings inside thumbnail -->
    <!-- Staff 1: Vocals -->
    <line x1="10" y1="20" x2="132" y2="20" stroke="#94A3B8" stroke-width="0.8"/>
    <line x1="10" y1="24" x2="132" y2="24" stroke="#94A3B8" stroke-width="0.8"/>
    <line x1="10" y1="28" x2="132" y2="28" stroke="#94A3B8" stroke-width="0.8"/>
    <!-- Staff 2: Drums -->
    <line x1="10" y1="42" x2="132" y2="42" stroke="#94A3B8" stroke-width="0.8"/>
    <line x1="10" y1="46" x2="132" y2="46" stroke="#94A3B8" stroke-width="0.8"/>
    <line x1="10" y1="50" x2="132" y2="50" stroke="#94A3B8" stroke-width="0.8"/>
    <!-- Staff 3: Bass -->
    <line x1="10" y1="64" x2="132" y2="64" stroke="#94A3B8" stroke-width="0.8"/>
    <line x1="10" y1="68" x2="132" y2="68" stroke="#94A3B8" stroke-width="0.8"/>
    <line x1="10" y1="72" x2="132" y2="72" stroke="#94A3B8" stroke-width="0.8"/>
    <!-- Staff 4: Other -->
    <line x1="10" y1="86" x2="132" y2="86" stroke="#94A3B8" stroke-width="0.8"/>
    <line x1="10" y1="90" x2="132" y2="90" stroke="#94A3B8" stroke-width="0.8"/>
    <line x1="10" y1="94" x2="132" y2="94" stroke="#94A3B8" stroke-width="0.8"/>
    <!-- Bracket on left -->
    <line x1="8" y1="18" x2="8" y2="96" stroke="#1E293B" stroke-width="1.5"/>
    <!-- Badge -->
    <rect x="4" y="146" width="134" height="20" rx="3" fill="#171939" fill-opacity="0.95"/>
    <text x="8" y="160" font-family="monospace" font-size="9" font-weight="bold" fill="#38BDF8">P.1 [m. 1–13] ACTIVE</text>
  </g>

  <!-- Page 2 Thumbnail -->
  <g transform="translate(14, 276)">
    <rect x="0" y="0" width="142" height="170" rx="4" fill="#F7F3EA" stroke="#E5DFC9" stroke-width="1.5" filter="url(#card-shadow)"/>
    <line x1="10" y1="20" x2="132" y2="20" stroke="#CBD5E1" stroke-width="0.8"/>
    <line x1="10" y1="42" x2="132" y2="42" stroke="#CBD5E1" stroke-width="0.8"/>
    <line x1="10" y1="64" x2="132" y2="64" stroke="#CBD5E1" stroke-width="0.8"/>
    <line x1="10" y1="86" x2="132" y2="86" stroke="#CBD5E1" stroke-width="0.8"/>
    <rect x="4" y="146" width="134" height="20" rx="3" fill="#171939" fill-opacity="0.9"/>
    <text x="8" y="160" font-family="monospace" font-size="9" font-weight="bold" fill="#94A3B8">P.2 [m. 14–24]</text>
  </g>

  <!-- Page 3 Thumbnail -->
  <g transform="translate(14, 456)">
    <rect x="0" y="0" width="142" height="170" rx="4" fill="#F7F3EA" stroke="#E5DFC9" stroke-width="1.5" filter="url(#card-shadow)"/>
    <line x1="10" y1="20" x2="132" y2="20" stroke="#CBD5E1" stroke-width="0.8"/>
    <line x1="10" y1="42" x2="132" y2="42" stroke="#CBD5E1" stroke-width="0.8"/>
    <line x1="10" y1="64" x2="132" y2="64" stroke="#CBD5E1" stroke-width="0.8"/>
    <line x1="10" y1="86" x2="132" y2="86" stroke="#CBD5E1" stroke-width="0.8"/>
    <rect x="4" y="146" width="134" height="20" rx="3" fill="#171939" fill-opacity="0.9"/>
    <text x="8" y="160" font-family="monospace" font-size="9" font-weight="bold" fill="#94A3B8">P.3 [m. 25–35]</text>
  </g>

  <!-- Page 4 Thumbnail -->
  <g transform="translate(14, 636)">
    <rect x="0" y="0" width="142" height="170" rx="4" fill="#F7F3EA" stroke="#E5DFC9" stroke-width="1.5" filter="url(#card-shadow)"/>
    <line x1="10" y1="20" x2="132" y2="20" stroke="#CBD5E1" stroke-width="0.8"/>
    <line x1="10" y1="42" x2="132" y2="42" stroke="#CBD5E1" stroke-width="0.8"/>
    <line x1="10" y1="64" x2="132" y2="64" stroke="#CBD5E1" stroke-width="0.8"/>
    <line x1="10" y1="86" x2="132" y2="86" stroke="#CBD5E1" stroke-width="0.8"/>
    <rect x="4" y="146" width="134" height="20" rx="3" fill="#171939" fill-opacity="0.9"/>
    <text x="8" y="160" font-family="monospace" font-size="9" font-weight="bold" fill="#94A3B8">P.4 [m. 36–46]</text>
  </g>

  <!-- ================= CENTER DOMINANT SCORE CONTAINER (x=170..1220, y=54..828) ================= -->
  <rect x="170" y="54" width="1050" height="774" fill="#080C17"/>

  <!-- Score floating toolbar -->
  <g transform="translate(185, 66)">
    <!-- Mode Pills -->
    <rect x="0" y="0" width="168" height="28" rx="4" fill="#7C3AED" stroke="#9333EA"/>
    <text x="12" y="18" font-size="11" font-weight="bold" fill="#FFFFFF">🎼 4단 총보 (Grand Score)</text>

    <rect x="174" y="0" width="168" height="28" rx="4" fill="#1E293B" stroke="#334155"/>
    <text x="184" y="18" font-size="11" fill="#94A3B8">📑 파트보 분리 (Stems)</text>

    <!-- Indicator -->
    <text x="360" y="19" font-size="11" font-weight="bold" fill="#CBD5E1">Score View: Page 1 of 12 (Measures 1–13)</text>
    <text x="610" y="19" font-size="10" fill="#64748B">Waiting for playback · score cursor idle</text>

    <!-- Follow badge -->
    <rect x="800" y="2" width="76" height="24" rx="3" fill="#0891B2" fill-opacity="0.2" stroke="#0891B2"/>
    <text x="808" y="18" font-family="monospace" font-size="10" font-weight="bold" fill="#38BDF8">FOLLOW: ON</text>

    <!-- Zoom -->
    <rect x="890" y="2" width="22" height="24" rx="3" fill="#262B5C" stroke="#334155"/>
    <text x="897" y="18" font-size="12" fill="#CBD5E1">−</text>
    <text x="920" y="18" font-family="monospace" font-size="11" fill="#FFFFFF">100%</text>
    <rect x="958" y="2" width="22" height="24" rx="3" fill="#262B5C" stroke="#334155"/>
    <text x="964" y="18" font-size="12" fill="#CBD5E1">+</text>
    <rect x="988" y="2" width="34" height="24" rx="3" fill="#262B5C" stroke="#334155"/>
    <text x="996" y="18" font-size="10" fill="#CBD5E1">Fit</text>
  </g>

  <!-- 4-Part Grand Score Verified Banner -->
  <g transform="translate(185, 102)">
    <rect x="0" y="0" width="1020" height="26" rx="4" fill="#10122B" stroke="#334155"/>
    <circle cx="14" cy="13" r="4" fill="#10B981" filter="url(#cyan-glow)"/>
    <text x="26" y="17" font-size="10" font-weight="bold" fill="#10B981">4-PART GRAND SCORE VERIFIED</text>
    <text x="210" y="17" font-size="10" fill="#94A3B8">Vocals · Drums · Bass · Other (All 4 Stems Bracketed)</text>
    <text x="840" y="17" font-family="monospace" font-size="10" font-weight="bold" fill="#38BDF8">4 NOTATED STAVES · COMPLETE</text>
  </g>

  <!-- Cream Archival Paper Sheet (Grand Score Multi-Staff) -->
  <g transform="translate(245, 136)">
    <rect x="0" y="0" width="900" height="676" rx="3" fill="#F7F3EA" stroke="#E5DFC9" stroke-width="1.5" filter="url(#paper-shadow)"/>

    <!-- Score Page Header -->
    <text x="450" y="32" text-anchor="middle" font-family="'Noto Serif JP', Georgia, serif" font-size="20" font-weight="bold" fill="#1E293B">Stardust (スターダスト) — Full Multi-Staff Score</text>
    <text x="450" y="50" text-anchor="middle" font-size="10" fill="#64748B">Vocals • Drums • Bass • Other | Measures 1–13 • Page 1 of 12</text>
    <text x="40" y="50" font-size="10" font-weight="bold" fill="#475569">Tempo: 160 BPM</text>
    <text x="860" y="50" text-anchor="end" font-size="10" font-weight="bold" fill="#475569">Key: G minor (2 flats) • 4/4</text>
    <line x1="40" y1="58" x2="860" y2="58" stroke="#1E293B" stroke-width="1.2"/>

    <!-- Grand Score System 1 (Measures 9 - 11) Bracketed 4 Staves -->
    <g transform="translate(60, 75)">
      <!-- Master System Bracket -->
      <line x1="-15" y1="0" x2="-15" y2="520" stroke="#1E293B" stroke-width="3"/>
      <path d="M -15,0 Q -22,-4 -22,-8 L -15,0 L -22,4" fill="#1E293B"/>
      <path d="M -15,520 Q -22,524 -22,528 L -15,520 L -22,516" fill="#1E293B"/>

      <!-- ================= STAFF 1: VOCALS ================= -->
      <text x="-48" y="24" font-family="sans-serif" font-size="10" font-weight="bold" fill="#64748B">Vocals</text>
      <line x1="0" y1="0" x2="800" y2="0" stroke="#1E293B" stroke-width="1.1"/>
      <line x1="0" y1="10" x2="800" y2="10" stroke="#1E293B" stroke-width="1.1"/>
      <line x1="0" y1="20" x2="800" y2="20" stroke="#1E293B" stroke-width="1.1"/>
      <line x1="0" y1="30" x2="800" y2="30" stroke="#1E293B" stroke-width="1.1"/>
      <line x1="0" y1="40" x2="800" y2="40" stroke="#1E293B" stroke-width="1.1"/>
      <line x1="0" y1="0" x2="0" y2="40" stroke="#1E293B" stroke-width="1.5"/>
      <line x1="260" y1="0" x2="260" y2="40" stroke="#1E293B" stroke-width="1"/>
      <line x1="530" y1="0" x2="530" y2="40" stroke="#1E293B" stroke-width="1"/>
      <line x1="800" y1="0" x2="800" y2="40" stroke="#1E293B" stroke-width="1.5"/>

      <text x="6" y="-6" font-size="9" font-weight="bold" fill="#64748B">9</text>
      <text x="266" y="-6" font-size="9" font-weight="bold" fill="#64748B">10</text>
      <text x="536" y="-6" font-size="9" font-weight="bold" fill="#64748B">11</text>

      <text x="4" y="32" font-family="serif" font-size="28" fill="#1E293B">𝄞</text>
      <text x="28" y="20" font-family="serif" font-size="15" fill="#1E293B">♭</text>
      <text x="36" y="10" font-family="serif" font-size="15" fill="#1E293B">♭</text>
      <text x="48" y="16" font-family="sans-serif" font-size="12" font-weight="bold" fill="#1E293B">4</text>
      <text x="48" y="36" font-family="sans-serif" font-size="12" font-weight="bold" fill="#1E293B">4</text>

      <!-- Vocal Notes & Lyrics -->
      <!-- Note 1: Bb3 (Event 0: 13.162s) -->
      <ellipse cx="90" cy="30" rx="4.5" ry="3.2" fill="#1E293B" transform="rotate(-20 90 30)"/>
      <line x1="94" y1="28" x2="94" y2="-4" stroke="#1E293B" stroke-width="1.2"/>
      <text x="86" y="62" font-family="'Noto Serif JP', serif" font-size="12" font-weight="bold" fill="#1E293B">し</text>

      <!-- Note 2: C4 (Event 1) -->
      <ellipse cx="140" cy="20" rx="4.5" ry="3.2" fill="#1E293B" transform="rotate(-20 140 20)"/>
      <line x1="144" y1="18" x2="144" y2="-14" stroke="#1E293B" stroke-width="1.2"/>
      <text x="136" y="62" font-family="'Noto Serif JP', serif" font-size="12" font-weight="bold" fill="#1E293B">ん</text>

      <!-- Note 3: D4 (Event 2) -->
      <ellipse cx="190" cy="10" rx="4.5" ry="3.2" fill="#1E293B" transform="rotate(-20 190 10)"/>
      <line x1="194" y1="8" x2="194" y2="-24" stroke="#1E293B" stroke-width="1.2"/>
      <text x="186" y="62" font-family="'Noto Serif JP', serif" font-size="12" font-weight="bold" fill="#1E293B">ご</text>

      <!-- Note 4: F4 (Event 3) -->
      <ellipse cx="290" cy="0" rx="4.5" ry="3.2" fill="#1E293B" transform="rotate(-20 290 0)"/>
      <line x1="294" y1="-2" x2="294" y2="-34" stroke="#1E293B" stroke-width="1.2"/>
      <text x="286" y="62" font-family="'Noto Serif JP', serif" font-size="12" font-weight="bold" fill="#1E293B">う</text>

      <!-- Note 5: G4 (Event 4) -->
      <ellipse cx="350" cy="-5" rx="4.5" ry="3.2" fill="#1E293B" transform="rotate(-20 350 -5)"/>
      <line x1="354" y1="-7" x2="354" y2="-39" stroke="#1E293B" stroke-width="1.2"/>
      <text x="346" y="62" font-family="'Noto Serif JP', serif" font-size="12" font-weight="bold" fill="#1E293B">の</text>

      <!-- Note 6: F4 (Event 5) -->
      <ellipse cx="440" cy="0" rx="4.5" ry="3.2" fill="#1E293B" transform="rotate(-20 440 0)"/>
      <line x1="444" y1="-2" x2="444" y2="-34" stroke="#1E293B" stroke-width="1.2"/>
      <text x="436" y="62" font-family="'Noto Serif JP', serif" font-size="12" font-weight="bold" fill="#1E293B">き</text>

      <!-- Note 7: D4 (Event 6) -->
      <ellipse cx="580" cy="10" rx="4.5" ry="3.2" fill="#1E293B" transform="rotate(-20 580 10)"/>
      <line x1="584" y1="8" x2="584" y2="-24" stroke="#1E293B" stroke-width="1.2"/>
      <text x="576" y="62" font-family="'Noto Serif JP', serif" font-size="12" font-weight="bold" fill="#1E293B">え</text>

      <!-- Note 8: C4 (Event 7) -->
      <ellipse cx="640" cy="20" rx="4.5" ry="3.2" fill="#1E293B" transform="rotate(-20 640 20)"/>
      <line x1="644" y1="18" x2="644" y2="-14" stroke="#1E293B" stroke-width="1.2"/>
      <text x="636" y="62" font-family="'Noto Serif JP', serif" font-size="12" font-weight="bold" fill="#1E293B">た</text>

      <!-- ================= STAFF 2: DRUMS ================= -->
      <g transform="translate(0, 140)">
        <text x="-48" y="24" font-family="sans-serif" font-size="10" font-weight="bold" fill="#64748B">Drums</text>
        <line x1="0" y1="0" x2="800" y2="0" stroke="#1E293B" stroke-width="1.1"/>
        <line x1="0" y1="10" x2="800" y2="10" stroke="#1E293B" stroke-width="1.1"/>
        <line x1="0" y1="20" x2="800" y2="20" stroke="#1E293B" stroke-width="1.1"/>
        <line x1="0" y1="30" x2="800" y2="30" stroke="#1E293B" stroke-width="1.1"/>
        <line x1="0" y1="40" x2="800" y2="40" stroke="#1E293B" stroke-width="1.1"/>
        <line x1="0" y1="0" x2="0" y2="40" stroke="#1E293B" stroke-width="1.5"/>
        <line x1="260" y1="0" x2="260" y2="40" stroke="#1E293B" stroke-width="1"/>
        <line x1="530" y1="0" x2="530" y2="40" stroke="#1E293B" stroke-width="1"/>
        <line x1="800" y1="0" x2="800" y2="40" stroke="#1E293B" stroke-width="1.5"/>

        <!-- Percussion Clef -->
        <rect x="6" y="10" width="4" height="20" fill="#1E293B"/>
        <rect x="14" y="10" width="4" height="20" fill="#1E293B"/>

        <!-- Hihats on top line -->
        <text x="80" y="2" font-family="sans-serif" font-size="12" font-weight="bold" fill="#1E293B">×</text>
        <text x="130" y="2" font-family="sans-serif" font-size="12" font-weight="bold" fill="#1E293B">×</text>
        <text x="180" y="2" font-family="sans-serif" font-size="12" font-weight="bold" fill="#1E293B">×</text>
        <text x="230" y="2" font-family="sans-serif" font-size="12" font-weight="bold" fill="#1E293B">×</text>
        <ellipse cx="130" cy="15" rx="4" ry="3" fill="#1E293B"/>
        <ellipse cx="80" cy="35" rx="4" ry="3" fill="#1E293B"/>
        <ellipse cx="180" cy="35" rx="4" ry="3" fill="#1E293B"/>

        <!-- Measure 10 -->
        <text x="310" y="2" font-family="sans-serif" font-size="12" font-weight="bold" fill="#1E293B">×</text>
        <text x="360" y="2" font-family="sans-serif" font-size="12" font-weight="bold" fill="#1E293B">×</text>
        <ellipse cx="360" cy="15" rx="4" ry="3" fill="#1E293B"/>
        <ellipse cx="310" cy="35" rx="4" ry="3" fill="#1E293B"/>
      </g>

      <!-- ================= STAFF 3: BASS ================= -->
      <g transform="translate(0, 260)">
        <text x="-48" y="24" font-family="sans-serif" font-size="10" font-weight="bold" fill="#64748B">Bass</text>
        <line x1="0" y1="0" x2="800" y2="0" stroke="#1E293B" stroke-width="1.1"/>
        <line x1="0" y1="10" x2="800" y2="10" stroke="#1E293B" stroke-width="1.1"/>
        <line x1="0" y1="20" x2="800" y2="20" stroke="#1E293B" stroke-width="1.1"/>
        <line x1="0" y1="30" x2="800" y2="30" stroke="#1E293B" stroke-width="1.1"/>
        <line x1="0" y1="40" x2="800" y2="40" stroke="#1E293B" stroke-width="1.1"/>
        <line x1="0" y1="0" x2="0" y2="40" stroke="#1E293B" stroke-width="1.5"/>
        <line x1="260" y1="0" x2="260" y2="40" stroke="#1E293B" stroke-width="1"/>
        <line x1="530" y1="0" x2="530" y2="40" stroke="#1E293B" stroke-width="1"/>
        <line x1="800" y1="0" x2="800" y2="40" stroke="#1E293B" stroke-width="1.5"/>

        <!-- Bass Clef -->
        <text x="4" y="28" font-family="serif" font-size="24" fill="#1E293B">𝄢</text>
        <text x="24" y="20" font-family="serif" font-size="14" fill="#1E293B">♭</text>
        <text x="32" y="10" font-family="serif" font-size="14" fill="#1E293B">♭</text>

        <!-- Bass Notes (F1 to G3 range) -->
        <ellipse cx="80" cy="30" rx="4.5" ry="3.2" fill="#1E293B" transform="rotate(-20 80 30)"/>
        <line x1="84" y1="28" x2="84" y2="-4" stroke="#1E293B" stroke-width="1.2"/>
        <ellipse cx="140" cy="20" rx="4.5" ry="3.2" fill="#1E293B" transform="rotate(-20 140 20)"/>
        <line x1="144" y1="18" x2="144" y2="-14" stroke="#1E293B" stroke-width="1.2"/>
        <ellipse cx="200" cy="10" rx="4.5" ry="3.2" fill="#1E293B" transform="rotate(-20 200 10)"/>
        <line x1="204" y1="8" x2="204" y2="-24" stroke="#1E293B" stroke-width="1.2"/>
        <ellipse cx="320" cy="30" rx="4.5" ry="3.2" fill="#1E293B" transform="rotate(-20 320 30)"/>
        <line x1="324" y1="28" x2="324" y2="-4" stroke="#1E293B" stroke-width="1.2"/>
      </g>

      <!-- ================= STAFF 4: OTHER ================= -->
      <g transform="translate(0, 380)">
        <text x="-48" y="24" font-family="sans-serif" font-size="10" font-weight="bold" fill="#64748B">Other</text>
        <line x1="0" y1="0" x2="800" y2="0" stroke="#1E293B" stroke-width="1.1"/>
        <line x1="0" y1="10" x2="800" y2="10" stroke="#1E293B" stroke-width="1.1"/>
        <line x1="0" y1="20" x2="800" y2="20" stroke="#1E293B" stroke-width="1.1"/>
        <line x1="0" y1="30" x2="800" y2="30" stroke="#1E293B" stroke-width="1.1"/>
        <line x1="0" y1="40" x2="800" y2="40" stroke="#1E293B" stroke-width="1.1"/>
        <line x1="0" y1="0" x2="0" y2="40" stroke="#1E293B" stroke-width="1.5"/>
        <line x1="260" y1="0" x2="260" y2="40" stroke="#1E293B" stroke-width="1"/>
        <line x1="530" y1="0" x2="530" y2="40" stroke="#1E293B" stroke-width="1"/>
        <line x1="800" y1="0" x2="800" y2="40" stroke="#1E293B" stroke-width="1.5"/>

        <!-- Treble Clef -->
        <text x="4" y="32" font-family="serif" font-size="28" fill="#1E293B">𝄞</text>
        <text x="28" y="20" font-family="serif" font-size="15" fill="#1E293B">♭</text>
        <text x="36" y="10" font-family="serif" font-size="15" fill="#1E293B">♭</text>

        <!-- Polyphonic Chords / Arpeggios (C3 to D#6 range) -->
        <ellipse cx="90" cy="10" rx="4" ry="2.8" fill="#1E293B"/>
        <ellipse cx="90" cy="20" rx="4" ry="2.8" fill="#1E293B"/>
        <ellipse cx="90" cy="30" rx="4" ry="2.8" fill="#1E293B"/>
        <line x1="94" y1="8" x2="94" y2="-24" stroke="#1E293B" stroke-width="1.2"/>
        <ellipse cx="180" cy="0" rx="4" ry="2.8" fill="#1E293B"/>
        <ellipse cx="180" cy="15" rx="4" ry="2.8" fill="#1E293B"/>
        <line x1="184" y1="-2" x2="184" y2="-34" stroke="#1E293B" stroke-width="1.2"/>
      </g>
    </g>
  </g>

  <!-- ================= RIGHT LYRIC INSPECTOR (x=1220..1600, y=54..828) ================= -->
  <rect x="1220" y="54" width="380" height="774" fill="#171939" stroke="#334155" stroke-width="1"/>

  <!-- Panel Header -->
  <rect x="1220" y="54" width="380" height="32" fill="#10122B" stroke="#334155"/>
  <text x="1236" y="74" font-size="11" font-weight="bold" fill="#CBD5E1">Lyric Lines (29)</text>
  <rect x="1500" y="60" width="88" height="20" rx="3" fill="#262B5C" stroke="#334155"/>
  <text x="1506" y="73" font-size="9" fill="#94A3B8">Draft text only</text>

  <!-- Banner -->
  <rect x="1232" y="94" width="356" height="32" rx="4" fill="#10122B" stroke="#0891B2" stroke-opacity="0.5"/>
  <text x="1244" y="114" font-size="10" font-weight="bold" fill="#38BDF8">🔒 Note timing &amp; pitches FROZEN</text>
  <text x="1465" y="114" font-size="9" fill="#64748B">Edits are draft overlay</text>

  <!-- Lyric Lines List -->
  <!-- Line 0 (Active) -->
  <g transform="translate(1232, 134)">
    <rect x="0" y="0" width="356" height="42" rx="4" fill="#7C3AED" fill-opacity="0.15" stroke="#7C3AED" stroke-width="1.5"/>
    <text x="10" y="18" font-family="monospace" font-size="10" font-weight="bold" fill="#C084FC">#00</text>
    <text x="38" y="18" font-size="11" font-weight="bold" fill="#F8FAFC">信号の消えた交差点</text>
    <text x="10" y="34" font-family="monospace" font-size="9" fill="#94A3B8">13.16s – 17.80s • 10 notes • Bar 9–12</text>
  </g>

  <!-- Line 1 -->
  <g transform="translate(1232, 182)">
    <rect x="0" y="0" width="356" height="42" rx="4" fill="#10122B" stroke="#334155"/>
    <text x="10" y="18" font-family="monospace" font-size="10" font-weight="bold" fill="#64748B">#01</text>
    <text x="38" y="18" font-size="11" fill="#CBD5E1">軋むブレーキと雨</text>
    <text x="10" y="34" font-family="monospace" font-size="9" fill="#64748B">18.20s – 23.24s • 12 notes • Bar 13–16</text>
  </g>

  <!-- Line 2 -->
  <g transform="translate(1232, 230)">
    <rect x="0" y="0" width="356" height="42" rx="4" fill="#10122B" stroke="#334155"/>
    <text x="10" y="18" font-family="monospace" font-size="10" font-weight="bold" fill="#64748B">#02</text>
    <text x="38" y="18" font-size="11" fill="#CBD5E1">誰かの落とした傘</text>
    <text x="10" y="34" font-family="monospace" font-size="9" fill="#64748B">23.60s – 28.10s • 9 notes • Bar 17–20</text>
  </g>

  <!-- Line 3 -->
  <g transform="translate(1232, 278)">
    <rect x="0" y="0" width="356" height="42" rx="4" fill="#10122B" stroke="#334155"/>
    <text x="10" y="18" font-family="monospace" font-size="10" font-weight="bold" fill="#64748B">#03</text>
    <text x="38" y="18" font-size="11" fill="#CBD5E1">青に変わる前の静寂</text>
    <text x="10" y="34" font-family="monospace" font-size="9" fill="#64748B">28.40s – 33.00s • 11 notes • Bar 21–24</text>
  </g>

  <!-- Drawer (Detail Editor for Selected Line) -->
  <g transform="translate(1232, 330)">
    <rect x="0" y="0" width="356" height="480" rx="4" fill="#10122B" stroke="#334155"/>
    <text x="14" y="24" font-size="11" font-weight="bold" fill="#F8FAFC">Line #00: 信号の消えた交差点</text>
    <rect x="256" y="10" width="86" height="20" rx="3" fill="#0891B2" fill-opacity="0.2" stroke="#0891B2"/>
    <text x="264" y="23" font-family="monospace" font-size="9" font-weight="bold" fill="#38BDF8">Frozen Spec</text>

    <!-- Field 1: Canonical Reference -->
    <text x="14" y="58" font-size="10" font-weight="bold" fill="#94A3B8">Canonical Line Text (Reference)</text>
    <rect x="14" y="66" width="328" height="28" rx="3" fill="#080C17" stroke="#334155"/>
    <text x="22" y="84" font-size="11" fill="#CBD5E1">信号の消えた交差点</text>

    <!-- Field 2: Draft Display Text -->
    <text x="14" y="116" font-size="10" font-weight="bold" fill="#94A3B8">Draft Display Text (Overlay)</text>
    <rect x="14" y="124" width="328" height="32" rx="3" fill="#171939" stroke="#7C3AED"/>
    <text x="22" y="144" font-size="11" fill="#FFFFFF">信号の消えた交差点</text>

    <!-- Field 3: Draft Alignment Text -->
    <text x="14" y="178" font-size="10" font-weight="bold" fill="#94A3B8">Draft Alignment Text (Mora / Hiragana)</text>
    <rect x="14" y="186" width="328" height="32" rx="3" fill="#171939" stroke="#334155"/>
    <text x="22" y="206" font-size="11" fill="#CBD5E1">しんごうのきえたこうさてん</text>

    <!-- Buttons -->
    <rect x="14" y="236" width="130" height="28" rx="3" fill="#DC2626" fill-opacity="0.8"/>
    <text x="24" y="254" font-size="10" font-weight="bold" fill="#FFFFFF">Reset to Canonical</text>

    <rect x="222" y="236" width="120" height="28" rx="3" fill="#7C3AED"/>
    <text x="236" y="254" font-size="10" font-weight="bold" fill="#FFFFFF">Save Draft Line</text>

    <!-- Stems mixer summary in drawer -->
    <line x1="14" y1="280" x2="342" y2="280" stroke="#334155"/>
    <text x="14" y="302" font-size="10" font-weight="bold" fill="#CBD5E1">Stem Audio &amp; Notation Levels</text>

    <!-- Vocals -->
    <text x="14" y="326" font-size="10" fill="#C084FC">Vocals (Lead)</text>
    <text x="100" y="326" font-size="9" fill="#94A3B8">478 notes · Solo/Mute</text>
    <rect x="220" y="318" width="120" height="8" rx="2" fill="#1E293B"/>
    <rect x="220" y="318" width="100" height="8" rx="2" fill="#7C3AED"/>

    <!-- Drums -->
    <text x="14" y="352" font-size="10" fill="#34D399">Drums</text>
    <text x="100" y="352" font-size="9" fill="#94A3B8">263 hits · Solo/Mute</text>
    <rect x="220" y="344" width="120" height="8" rx="2" fill="#1E293B"/>
    <rect x="220" y="344" width="90" height="8" rx="2" fill="#10B981"/>

    <!-- Bass -->
    <text x="14" y="378" font-size="10" fill="#38BDF8">Bass</text>
    <text x="100" y="378" font-size="9" fill="#94A3B8">86 notes · Solo/Mute</text>
    <rect x="220" y="370" width="120" height="8" rx="2" fill="#1E293B"/>
    <rect x="220" y="370" width="85" height="8" rx="2" fill="#0891B2"/>

    <!-- Other -->
    <text x="14" y="404" font-size="10" fill="#F59E0B">Other</text>
    <text x="100" y="404" font-size="9" fill="#94A3B8">206 notes · Solo/Mute</text>
    <rect x="220" y="396" width="120" height="8" rx="2" fill="#1E293B"/>
    <rect x="220" y="396" width="80" height="8" rx="2" fill="#D97706"/>
  </g>

  <!-- ================= BOTTOM TIMELINE BAR & SCRUBBER (y=828..900) ================= -->
  <rect x="0" y="828" width="1600" height="72" fill="#171939" stroke="#334155" stroke-width="1"/>

  <!-- Scrubber track container -->
  <g transform="translate(16, 834)">
    <!-- Canvas track background -->
    <rect x="0" y="0" width="1568" height="34" rx="4" fill="#10122B" stroke="#334155"/>

    <!-- Section Colored Bands across 181.5s total duration -->
    <!-- Intro: 0.0 to 13.16s (0% to 7.25%) -->
    <rect x="0" y="2" width="114" height="30" fill="#64748B" fill-opacity="0.25"/>
    <text x="4" y="14" font-size="8" font-weight="bold" fill="#94A3B8">Intro (m.1-8)</text>

    <!-- Verse A: 13.16 to 36.0s (7.25% to 19.83%) -->
    <rect x="114" y="2" width="197" height="30" fill="#6366F1" fill-opacity="0.25"/>
    <text x="118" y="14" font-size="8" font-weight="bold" fill="#818CF8">Verse A (m.9-24)</text>

    <!-- Verse B: 36.0 to 60.0s (19.83% to 33.05%) -->
    <rect x="311" y="2" width="207" height="30" fill="#7C3AED" fill-opacity="0.25"/>
    <text x="315" y="14" font-size="8" font-weight="bold" fill="#C084FC">Verse B (m.25-40)</text>

    <!-- Chorus 1: 60.0 to 108.0s (33.05% to 59.50%) -->
    <rect x="518" y="2" width="415" height="30" fill="#0891B2" fill-opacity="0.25"/>
    <text x="522" y="14" font-size="8" font-weight="bold" fill="#38BDF8">Chorus 1 (m.41-72)</text>

    <!-- Bridge: 108.0 to 144.0s (59.50% to 79.33%) -->
    <rect x="933" y="2" width="311" height="30" fill="#D97706" fill-opacity="0.25"/>
    <text x="937" y="14" font-size="8" font-weight="bold" fill="#FBBF24">Bridge (m.73-96)</text>

    <!-- Chorus 2: 144.0 to 168.0s (79.33% to 92.56%) -->
    <rect x="1244" y="2" width="207" height="30" fill="#0891B2" fill-opacity="0.25"/>
    <text x="1248" y="14" font-size="8" font-weight="bold" fill="#38BDF8">Chorus 2 (m.97-112)</text>

    <!-- Outro: 168.0 to 181.5s (92.56% to 100.0%) -->
    <rect x="1451" y="2" width="117" height="30" fill="#DC2626" fill-opacity="0.25"/>
    <text x="1455" y="14" font-size="8" font-weight="bold" fill="#F87171">Outro (m.113-121)</text>

    <!-- 121 Measure Ticks (Sampling key ticks) -->
    <!-- m.1 (0.0s = 0px) -->
    <line x1="0" y1="20" x2="0" y2="34" stroke="#CBD5E1" stroke-width="1.5"/>
    <text x="2" y="30" font-family="monospace" font-size="8" fill="#CBD5E1">m.1</text>

    <!-- m.9 (12.0s = 103px) -->
    <line x1="103" y1="20" x2="103" y2="34" stroke="#CBD5E1" stroke-width="1"/>
    <text x="105" y="30" font-family="monospace" font-size="8" fill="#CBD5E1">m.9</text>

    <!-- m.17 (24.0s = 207px) -->
    <line x1="207" y1="20" x2="207" y2="34" stroke="#CBD5E1" stroke-width="1"/>
    <text x="209" y="30" font-family="monospace" font-size="8" fill="#CBD5E1">m.17</text>

    <!-- m.41 (60.0s = 518px) -->
    <line x1="518" y1="20" x2="518" y2="34" stroke="#CBD5E1" stroke-width="1"/>
    <text x="520" y="30" font-family="monospace" font-size="8" fill="#CBD5E1">m.41</text>

    <!-- m.73 (108.0s = 933px) -->
    <line x1="933" y1="20" x2="933" y2="34" stroke="#CBD5E1" stroke-width="1"/>
    <text x="935" y="30" font-family="monospace" font-size="8" fill="#CBD5E1">m.73</text>

    <!-- m.113 (168.0s = 1451px) -->
    <line x1="1451" y1="20" x2="1451" y2="34" stroke="#CBD5E1" stroke-width="1"/>
    <text x="1453" y="30" font-family="monospace" font-size="8" fill="#CBD5E1">m.113</text>

    <!-- m.121 (180.0s = 1555px = 99.17%) -->
    <line x1="1555" y1="20" x2="1555" y2="34" stroke="#F43F5E" stroke-width="1.5"/>
    <text x="1530" y="30" font-family="monospace" font-size="8" font-weight="bold" fill="#F43F5E">m.121</text>

    <!-- 181.5s (100.0% = 1568px) End marker -->
    <line x1="1567" y1="0" x2="1567" y2="34" stroke="#38BDF8" stroke-width="2"/>

    <!-- A/B Range Overlay Highlight (13.16s to 23.24s = 114px to 201px) -->
    <rect x="114" y="0" width="87" height="34" fill="#6366F1" fill-opacity="0.25" stroke="#6366F1" stroke-width="1.5"/>
    <line x1="114" y1="0" x2="114" y2="34" stroke="#6366F1" stroke-width="2.5"/>
    <line x1="201" y1="0" x2="201" y2="34" stroke="#6366F1" stroke-width="2.5"/>

    <!-- PREMIERE-STYLE ZERO-REFLOW TRIANGULAR PLAYHEAD NEEDLE AT 00:00.00 -->
    <g transform="translate(0, 0)" filter="url(#playhead-shadow)">
      <polygon points="-5,-4 5,-4 0,6" fill="#38BDF8"/>
      <line x1="0" y1="0" x2="0" y2="34" stroke="#38BDF8" stroke-width="2.5" filter="url(#cyan-glow)"/>
    </g>
  </g>

  <!-- Timeline info row -->
  <g transform="translate(16, 886)">
    <text x="0" y="0" font-family="monospace" font-size="11" font-weight="bold" fill="#F8FAFC">Active Line: None</text>
    <text x="240" y="0" font-family="monospace" font-size="11" fill="#64748B">Event: None</text>
    <text x="680" y="0" font-size="10" fill="#64748B">←/→: Frame Scrub (0.1s • Shift: 1.5s/1 Bar, Alt: Note) • Space: Play • S: Stop • [: Set A • ]: Set B • PgUp/Dn: Page</text>
    <text x="1568" y="0" text-anchor="end" font-family="monospace" font-size="11" font-weight="bold" fill="#38BDF8">Duration: 03:01.50 (181.50s · 121 Bars)</text>
  </g>
</svg>
